<svg xmlns="http://www.w3.org/2000/svg" viewBox="0 0 100 100"><radialGradient id="a" cx="-197.254" cy="298.175" r=".59" gradientTransform="matrix(96.78 0 0 -89.4543 19140.229 26726.74)" gradientUnits="userSpaceOnUse"><stop offset="0" stop-color="#ffb900"/><stop offset=".6" stop-color="#f95d8f"/><stop offset=".999" stop-color="#f95353"/></radialGradient><path d="M74.3 52.3C64 52.3 55.6 60.7 55.6 71c0 10.3 8.4 18.7 18.7 18.7C84.6 89.7 93 81.3 93 71c.1-10.3-8.3-18.7-18.7-18.7zm-48.6 0C15.4 52.3 7 60.7 7 71c0 10.3 8.4 18.7 18.7 18.7 10.3 0 18.7-8.4 18.7-18.7 0-10.3-8.4-18.7-18.7-18.7zm43-23.4c0 10.3-8.4 18.7-18.7 18.7-10.3 0-18.7-8.4-18.7-18.7 0-10.3 8.4-18.7 18.7-18.7 10.3 0 18.7 8.4 18.7 18.7z" fill="url(#a)"/></svg>