<svg xmlns="http://www.w3.org/2000/svg" viewBox="0 0 100 100"><path d="M35.4 96.2c8.3 0 15.1-6.8 15.1-15.1v-15H35.4c-8.3 0-15.1 6.8-15.1 15.1s6.8 15 15.1 15z" fill="#0acf83"/><path d="M20.3 51c0-8.3 6.8-15.1 15.1-15.1h15.1v30.2H35.4c-8.3 0-15.1-6.8-15.1-15.1z" fill="#a259ff"/><path d="M20.3 20.8c0-8.3 6.8-15.1 15.1-15.1h15.1v30.2H35.4c-8.3 0-15.1-6.7-15.1-15.1z" fill="#f24e1e"/><path d="M50.5 5.8h15.1c8.3 0 15.1 6.8 15.1 15.1S73.9 36 65.6 36H50.5V5.8z" fill="#ff7262"/><path d="M80.7 51c0 8.3-6.8 15.1-15.1 15.1S50.5 59.3 50.5 51s6.8-15.1 15.1-15.1S80.7 42.7 80.7 51z" fill="#1abcfe"/></svg>