<svg xmlns="http://www.w3.org/2000/svg" viewBox="0 0 100 100"><path d="M50 3.5C23.8 3.5 2.8 24.6 2.8 50.7 2.8 73 18 91.3 38.5 96.6c-.2-.6-.4-1.4-.4-2.1v-8h-5.9c-3.1 0-6.1-1.4-7.4-4.1-1.6-2.9-1.8-7.2-5.7-10-1.2-1-.2-2 1-1.8 2.5.6 4.5 2.1 6.4 4.7s2.7 3.1 6.2 3.1c1.6 0 4.3-.2 6.6-.4 1.4-3.3 3.5-6.2 6.2-7.6-15.8-2-23.4-9.8-23.4-20.3 0-4.7 2-9 5.3-12.7-1-3.7-2.5-11.3.4-14.2 7 0 11.3 4.7 12.5 5.9 3.5-1.2 7.4-2 11.5-2s8 .8 11.5 2c1-1.2 5.3-5.9 12.5-5.9 2.9 2.9 1.6 10.5.4 14.2 3.3 3.7 5.3 8.2 5.3 12.7 0 10.5-7.4 18.3-23.2 20.1 4.3 2.1 7.4 8.6 7.4 13.3v10.7c0 .4-.2.8-.2 1C84 88.8 97.2 71.4 97.2 50.7c0-26.1-21-47.2-47.2-47.2z"/></svg>