<svg version="1.1" id="Layer_1" xmlns="http://www.w3.org/2000/svg" x="0" y="0" viewBox="0 0 100 100" xml:space="preserve"><style>.st0{fill:#e24329}.st1{fill:#fc6d26}.st2{fill:#fca326}</style><path class="st0" d="M50 92.7l17.1-52.6H32.9L50 92.7z"/><path class="st1" d="M50 92.7L32.9 40.1H9l41 52.6z"/><path class="st2" d="M9 40.1L3.9 56.2c-.5 1.4 0 3 1.2 3.9L50 92.7 9 40.1z"/><path class="st0" d="M9 40.1h24L22.8 8.5c-.5-1.6-2.8-1.6-3.4 0L9 40.1z"/><path class="st1" d="M50 92.7l17.1-52.6h24L50 92.7z"/><path class="st2" d="M91 40.1l5.1 16.1c.5 1.4 0 3-1.2 3.9L50 92.7l41-52.6z"/><path class="st0" d="M91 40.1H67.1L77.4 8.5c.5-1.6 2.8-1.6 3.4 0L91 40.1z"/></svg>