<svg xmlns="http://www.w3.org/2000/svg" viewBox="0 0 100 100"><g fill-rule="evenodd" clip-rule="evenodd"><path d="M38.1 5.4c-4.9 0-9 4-9 9s4 9 9 9h9v-9c0-5-4-9-9-9m0 23.8H14.4c-4.9 0-9 4-9 9s4 9 9 9h23.8c4.9 0 9-4 9-9s-4.1-9-9.1-9z" fill="#36c5f0"/><path d="M94.6 38.1c0-4.9-4-9-9-9-4.9 0-9 4-9 9v9h9c5 0 9-4 9-9zm-23.8 0V14.4c0-4.9-4-9-9-9s-9 4-9 9v23.8c0 4.9 4 9 9 9s9-4.1 9-9.1z" fill="#2eb67d"/><path d="M61.9 94.6c4.9 0 9-4 9-9 0-4.9-4-9-9-9h-9v9c0 5 4 9 9 9zm0-23.8h23.8c4.9 0 9-4 9-9s-4-9-9-9H61.9c-4.9 0-9 4-9 9s4 9 9 9z" fill="#ecb22e"/><path d="M5.4 61.9c0 4.9 4 9 9 9s9-4 9-9v-9h-9c-5 0-9 4-9 9zm23.8 0v23.8c0 4.9 4 9 9 9s9-4 9-9V61.9c0-4.9-4-9-9-9s-9 4-9 9" fill="#e01e5a"/></g></svg>