<svg version="1.1" id="Layer_1" xmlns="http://www.w3.org/2000/svg" xmlns:xlink="http://www.w3.org/1999/xlink" x="0" y="0" viewBox="0 0 178 199" xml:space="preserve"><style>.st1{fill:none}.st6{opacity:.3;fill:#525dea;enable-background:new}.st8{fill:#fefefe;stroke:#5b60c1;stroke-width:.5;stroke-linecap:round;stroke-linejoin:round;stroke-miterlimit:10}.st10{fill:#525dea}.st11{fill:#dcdffb;stroke-width:.5;stroke-linecap:round;stroke-linejoin:round;stroke-miterlimit:10}.st11,.st12,.st13{stroke:#3f02a8}.st12,.st13,.st14,.st16{stroke-width:.5;stroke-linecap:round;stroke-linejoin:round;stroke-miterlimit:10}.st12{fill:#525dea}.st13{fill:none}.st14,.st16{fill:#ff227d;stroke:#671cc9}.st16{fill:none}.st17{fill:#3f02a8}.st18{fill:#dcdffb}.st18,.st19,.st21{stroke:#5b60c1;stroke-width:.5;stroke-linecap:round;stroke-linejoin:round;stroke-miterlimit:10}.st19{fill:none}.st21{fill:#797bf2}.st27{opacity:.3}.st28,.st29{fill:#ff227d;stroke:#5b60c1;stroke-width:.5;stroke-linecap:round;stroke-linejoin:round;stroke-miterlimit:10}.st29{fill:#ff57a4;stroke:#3f02a8}.st30{opacity:.1;fill:#4d4c4d;enable-background:new}.st32,.st37{fill:#4b28c4;stroke:#3f02a8;stroke-width:.5;stroke-miterlimit:10}.st37{fill:none;stroke:#ff57a4}</style><defs><path id="SVGID_1_" d="M0 0h178v198.5H0z"/></defs><clipPath id="SVGID_2_"><use xlink:href="#SVGID_1_" overflow="visible"/></clipPath><g clip-path="url(#SVGID_2_)"><path class="st1" d="M0 0h178v198.5H0z"/><image width="940" height="320" xlink:href="790CE984.png" transform="translate(-207 -32.7)" overflow="visible" opacity=".1"/><path d="M610.3 96.7c-6.1 0-11.9.7-17.5 1.9-7.2-38.9-52.8-68.9-107.9-68.8-50.8.1-93.4 25.6-105.3 60.1-5.7-1-11.8-1.6-18-1.6-21.1 0-40.1 6.5-53.5 16.9C290 91.7 264.8 83.3 237 83.3c-8.5 0-16.7.8-24.5 2.3-6.7-11.8-22.6-20-41.2-20-24.6 0-44.5 14.6-44.5 32.7 0 .6 0 1.3.1 1.9-6.4-1.8-13.2-3-20.3-3.6-12.4-27.2-47.5-56.7-88.7-56.7-51.6.1-93.3 40.7-93.3 78.4v1.8c-6-1.8-12.5-2.7-19.4-2.7-28.5 0-51.5 16.9-51.5 37.8 0 20.8 23.2 37.7 51.6 37.6 22.3 0 41.3-10.4 48.4-24.9 16.8 11.6 39.4 18.7 64.3 18.7 1.5 0 2.9 0 4.3-.1 14.1 19.6 42.3 32.9 74.6 32.8 24.1 0 45.7-7.4 61.1-19.3 18.2 17.4 46.9 28.7 79.2 28.6 38.4 0 71.6-16 88.1-39.3 10.8 4.5 23.2 7 36.5 7 24.6 0 46.4-8.9 59.8-22.4 17.9 9.4 39.9 14.9 63.6 14.9 28.7 0 54.8-8.2 74.2-21.6 11.1 11.9 29.8 19.7 51 19.6 34.1 0 61.6-20.3 61.6-45.2 0-24.8-27.7-44.9-61.7-44.9z" opacity=".1" fill="#babef7"/><image width="852" height="246" xlink:href="790CE98A.png" transform="translate(-140.328 36.248) scale(.9986)" overflow="visible" opacity=".1"/><path d="M-2.1 102.8c19.2-.3 37 4.4 51 12.4 5.9-4.9 14.5-8 24.1-8.2 18-.2 33 10 34 23 12.5-17.8 37.6-30.1 66.8-30.6 36.2-.6 67.2 17.2 76.1 41.8 11.8.5 22.5 4 30.8 9.5 4.6-1.2 9.5-1.9 14.6-2h.5c10.7-19.5 36.4-33.4 66.9-33.9 28.5-.5 53.7 11 66.4 28.2 2.5-.7 5.1-1.2 7.8-1.5 0-.4-.1-.8-.1-1.2-.5-17.9 18.9-32.8 43.4-33.2 11.9-.2 22.8 3.1 31 8.5 14.4-9.6 33.3-15.5 54.3-15.9 46-.7 84.1 25.9 85.1 59.6s-35.5 61.6-81.5 62.3c-32.7.5-61.5-12.8-75.7-32.7-6.5 14.2-24.6 24.6-46.3 25-11.4.2-22-2.5-30.6-7-13 9.5-30.8 15.5-50.6 15.9-17.4.3-33.5-3.9-46.3-11-6.6 2.8-14.2 4.5-22.3 4.6-9.7.2-18.8-1.9-26.4-5.5-6.9 2.8-14.8 4.4-23.1 4.5-13.7.2-26.3-3.6-35.7-9.9-10.4 4.1-22.3 6.5-34.9 6.8-34.2.6-63.7-15.3-74.4-37.7-4.2 1.5-8.9 2.4-13.9 2.5-4.1.1-8-.4-11.6-1.3-8.5 24.9-39 43.7-75.8 44.3-44.2.7-80.8-24.9-81.7-57.2-1-32.6 34-59.4 78.1-60.1z" opacity=".1" fill="#dcdffb"/><image width="874" height="299" xlink:href="790CE98B.png" transform="translate(-162.7 63.416) scale(.9986)" overflow="visible" opacity=".1"/><path d="M-47.5 190.7c5.6-.1 11 .3 16.1 1.3 4.8-35.9 45.3-64.5 95.9-65.8 46.6-1.2 86.9 21.2 99.4 52.6 5.2-1.1 10.7-1.8 16.4-1.9 19.4-.5 37.1 5 49.9 14.2 16-12.8 38.7-21.1 64.3-21.8 7.8-.2 15.3.3 22.6 1.5 5.6-11 19.9-18.9 36.9-19.4 22.6-.6 41.5 12.4 42.3 28.9v1.7c5.8-1.8 12-3.1 18.5-3.8 10.2-25.2 41.4-44 79.3-45 47.4-1.2 87.1 25.9 88.7 60.6v1.7c5.4-1.8 11.4-2.8 17.7-3 26.1-.7 48 14.3 49 33.4.9 19.1-19.5 35.2-45.7 35.8-20.5.5-38.4-8.6-45.6-21.7-14.9 11.1-35.3 18.1-58.2 18.7h-4c-12.1 18.3-37.3 31.2-67 32-22.1.6-42.3-5.7-56.9-16.2-15.9 16.4-41.7 27.5-71.3 28.2-35.2.9-66.4-12.9-82.6-33.9-9.7 4.4-21 7-33.2 7.3-22.6.6-43-7-55.9-19.1-16 9.1-35.9 14.7-57.7 15.2-26.4.7-50.7-6.2-69.1-18-9.7 11.2-26.5 18.8-45.9 19.3-31.3.8-57.5-17.1-58.6-40-1.1-22.8 23.4-42 54.7-42.8z" opacity=".1" fill="#fff"/><path d="M27.5 141.9c-1.4 0-1.4 1-2.8 1s-1.4-1-2.8-1-1.4 1-2.8 1-1.4-1-2.8-1-1.4 1-2.8 1-1.4-1-2.8-1-1.4 1-2.8 1-1.4-1-2.8-1v2.5h22.5c.7 0 1.3-.6 1.3-1.3-.1-.7-.7-1.2-1.4-1.2z" fill="#7cbfd9" stroke="#3f02a8" stroke-width=".5" stroke-miterlimit="10"/><path class="st6" d="M4.7 143.2h22.8c.7 0 1.3.2 1.3.6 0 .4-.6.8-1.3.8H4.7v-1.4z"/><path d="M5 141.9h-62.5c-.7 0-1.3.6-1.3 1.3s.6 1.3 1.3 1.3H5v-2.6z" fill="#bbbac5" stroke="#3f02a8" stroke-width=".5" stroke-miterlimit="10"/><path class="st6" d="M5.3 143.2h-62.8c-.7 0-1.3.3-1.3.7 0 0 .4.7 1.3.7H5.3v-1.4z"/><path class="st8" d="M31 163h-92c-2.2 0-4-1.8-4-4V67c0-2.2 1.8-4 4-4h92c2.2 0 4 1.8 4 4v92c0 2.2-1.8 4-4 4z"/><path class="st10" d="M7.8 114.4H1.4V111H.3v-2.3h-1v-2.4h-1.4V104h-.3v2.3h-1.5v2.4h-1v2.3H-6v8.3h-9.9v-4.6h-1v-6.2h-1.3v-1.6h-.7v-.9H-25v.9h-.7v1.6H-27v6.2h-1.2v14.2h-.9v13l44.1-.2v-26.3H7.8zm19.7 10.7v-1.9h-.9v-3.3h-.9v-1.5h-.5v-4.1h-.1v4.1h-.5v1.5h-.9v1.8h-6.2v20.2h11.1v-16.8zm-60-16H-38v2.8h-2.4v2.5h-3v10.1H-48v-7.7l-6.8 3.8v7.7l-2.5 1.2v12.2l27 .2v-30h-2.2z" opacity=".4"/><path class="st11" d="M-23.8 135.4h-14.3l2-45h10.3zm-14.3 0h14.3v6.3h-14.3z"/><path class="st12" d="M-27.4 90.4h-7.1v-1.3c0-.7.8-1.3 1.8-1.3h3.6c1 0 1.8.6 1.8 1.3l-.1 1.3zm-7.1 48.7h4.3v2.5h-4.3z"/><path class="st13" d="M-30.9 75.4v12.5"/><path class="st11" d="M-31.9 79.5c0 .3.3.5.7.5h.5c.4 0 .7-.2.7-.5s-.3-.5-.7-.5h-.5c-.4 0-.7.3-.7.5zm.1 10.9l5.1 45h-11.4zm5.2 45h2.9v6.3h-2.9zm.8-45l-.9 45h2.9z"/><path class="st11" d="M-31.8 90.4h-4.3l-2 45zm5.1 45l-5.1-45h6z"/><path class="st6" d="M-23.4 135.4l-2-45H-27v-1c0-.8-1-1.5-2.1-1.5h-1.8c-.2 0-.4.1-.4.3v2.3h-.5c-.1 0-.2 0-.3.1s-.1.1-.1.2l5.1 45v6.2c0 .1.2.3.4.3h2.9c.2 0 .4-.1.4-.3v-6.6z"/><path class="st14" d="M-14.3 93.8H-16v-8c0-.4.3-.8.7-.8h.3c.4 0 .8.3.8.8v8h-.1z"/><path class="st14" d="M-16.9 88.1V90h3.5v-1.9c0-.9-.8-1.5-1.8-1.5-.9 0-1.7.7-1.7 1.5z"/><path class="st14" d="M-17.3 89.9v2.4h4.4v-2.4c0-1.1-1-1.9-2.2-1.9-1.3 0-2.2.8-2.2 1.9z"/><path class="st14" d="M-17.8 91.6v2.8h5.3v-2.8c0-1.3-1.2-2.3-2.6-2.3-1.5 0-2.7 1-2.7 2.3z"/><path class="st14" d="M-18.4 93.6V97h6.5v-3.5c0-1.6-1.4-2.8-3.2-2.8-1.8.1-3.3 1.2-3.3 2.9zm-1.2 48.1h8.9v-39.3l.6-1.2h-10l.5 1.2z"/><path class="st14" d="M-12.2 134.2v3.7h-5.9v-3.7h-4.4v7.5h14.7v-7.5zM-19 95.7v4.3h7.6v-4.3c0-1.8-1.7-3.3-3.8-3.3-2.1 0-3.8 1.5-3.8 3.3z"/><path class="st13" d="M-16.6 99.9v-4.3c0-.7.7-1.3 1.5-1.3s1.5.6 1.5 1.3v4.3h-3z"/><path class="st14" d="M-12.2 130.4h3.7v3.8h-3.7zm-9.6 0h3.7v3.8h-3.7zm9.6 0h2.9v-1.2h-2.9zm-7.4-29.2h8.9v-1.3h-8.9zm1.5 28H-21v1.2h2.9zm0-3h-2.8l.6.5v2.5h2.2m5.9 0h2.2v-2.5l.6-.5h-2.8"/><path class="st13" d="M-22.5 140.4h14.7"/><path class="st14" d="M-17.3 137.9h4.4v3.8h-4.4z"/><path d="M-14.4 141.7h-1.5v-1.9c0-.3.3-.6.6-.6h.2c.3 0 .6.3.6.6l.1 1.9h0z" fill="#c59852" stroke="#3f02a8" stroke-width=".5" stroke-linecap="round" stroke-linejoin="round" stroke-miterlimit="10"/><path class="st16" d="M-15.1 80v5"/><path class="st13" d="M-19.3 133.2v-.5m-1.2.5v-.5m1.2-.8v-.5m-1.2.5v-.5m10.8 1.8v-.5m-1.3.5v-.5m1.3-.8v-.5m-1.3.5v-.5m2.1 4.3v-.5m-1.1.5v-.5m-1.1.5v-.5m2.2 2.3v-.5m-1.1.5v-.5m-1.1.5v-.5m2.2 2.4v-.5m-1.1.5v-.5m-1.1.5v-.5m-2.6-2v-.5m-1.4.5v-.5m-1.5.5v-.5m2.9-2.5v-.5m-1.4.5v-.5m-1.5.5v-.5m2.9 2v-.5m-1.4.5v-.5m-1.5.5v-.5m2.9-2.5v-.5m-1.4.5v-.5m-1.5.5v-.5m2.9-1v-.5m-1.4.5v-.5m-1.5.5v-.5m2.9-.9v-.5m-1.4.5v-.5m-1.5.5v-.5m2.9-1v-.5m-1.4.5v-.5m2.9.5v-.5m-4.4.5v-.5m-1.5.5v-.5m4.4-2.5v-.5m-1.4.5v-.5m2.9.5v-.5m-4.4.5v-.5m-1.5.5v-.5m4.4 2v-.5m-1.4.5v-.5m-1.5.5v-.5m2.9-2.5v-.5m-1.4.5v-.5m2.9.5v-.5m-4.4.5v-.5m-1.5.5v-.5m4.4-1v-.5m-1.4.5v-.5m2.9.5v-.5m-4.4.5v-.5m-1.5.5v-.5m4.4-1v-.5m-1.4.5v-.5m2.9.5v-.5m-4.4.5v-.5m-1.5.5v-.5m4.4-1v-.5m-1.4.5v-.5m2.9.5v-.5m-4.4.5v-.5m-1.5.5v-.5m4.4-2.5v-.5m-1.4.5v-.5m2.9.5v-.5m-4.4.5v-.5m-1.5.5v-.5m4.4 2v-.5m-1.4.5v-.5m2.9.5v-.5m-4.4.5v-.5m-1.5.5v-.5m4.4-2.4v-.5m-1.4.5v-.5m2.9.5v-.5m-4.4.5v-.5m-1.5.5v-.5m4.4-1v-.5m-1.4.5v-.5m2.9.5v-.5m-4.4.5v-.5m-1.5.5v-.5m4.4-2.5v-.5m-1.4.5v-.5m2.9.5v-.5m-4.4.5v-.5m-1.5.5v-.5m4.4 2v-.5m-1.4.5v-.5m2.9.5v-.5m-4.4.5v-.5m-1.5.5v-.5m4.4-2.5v-.5m-1.4.5v-.5m2.9.5v-.5m-4.4.5v-.5m-1.5.5v-.5m4.4-1v-.5m-1.4.5v-.5m2.9.5v-.5m-4.4.5v-.5m-1.5.5v-.5m4.4-1v-.5m-1.4.5v-.5m2.9.5v-.5m-4.4.5v-.5m-1.5.5v-.5m4.4-1v-.5m-1.4.5v-.5m2.9.5v-.5m-4.4.5v-.5m-1.5.5v-.5m4.4-1v-.5m-1.4.5v-.5m2.9.5v-.5m-4.4.5v-.5m-1.5.5v-.5m-1 33.6v-.5m-1.1.5v-.5m-1.1.5v-.5m2.2 2.3v-.5m-1.1.5v-.5m-1.1.5v-.5m2.2 2.4v-.5m-1.1.5v-.5m-1.1.5v-.5"/><path class="st17" d="M-15.1 93.2l-.6 1.3h1.1zm2.7 1.4l-1.6-.1v1z"/><path class="st17" d="M-13.4 93.7l-1.6.6.9.7zm-4.5.9l1.6-.1v1z"/><path class="st17" d="M-16.9 93.7l1.6.6-.9.7zm2.2-1.5l-.4-.9-.4.9h.8zm1.3-.4l-1.2.5c.3.1.6.1.8.3l.4-.8zm-3.5 0l.4.7c.2-.1.5-.2.8-.3l-1.2-.4zm2.1-1l-.4-.8-.4.8h.8zm1.1-.4l-1 .4c.3 0 .5.1.7.2l.3-.6zm-2.9 0l.3.6c.2-.1.4-.2.7-.2l-1-.4zm1.7-1.2l-.3-.6-.3.6h.3c.1-.1.2-.1.3 0zm.8-.3l-.7.3c.2 0 .4.1.5.2l.2-.5zm-2.1 0l.2.5c.1-.1.3-.1.5-.2l-.7-.3zm1.3-1.2l-.2-.5-.2.5c.1 0 .1.1.2.1 0 .1.1-.1.2-.1zm.7-.2l-.7.3c.2 0 .3.1.4.1l.3-.4zm-1.9 0l.2.4c.1-.1.3-.1.4-.1l-.6-.3z"/><path class="st13" d="M-17.8 98.9v-.5m0-1v-.5m5.3 2v-.5m0-1v-.5m-2.6 2v-.5m0-1v-.5"/><path class="st6" d="M-7.8 133.9h-.4v-3.5c0-.1-.1-.3-.3-.3H-9v-1c0-.1-.1-.3-.3-.3h-.4v-2.1l.5-.4c.1-.1.1-.2.1-.3 0-.1-.2-.2-.3-.2h-1v-23.5l.6-1.2v-.2c-.1-.1-.1-.1-.2-.1h-.3v-1c0-.1-.1-.3-.3-.3h-.4v-4c0-.7-.2-1.3-.6-1.8v-.3c0-.6-.2-1.2-.6-1.7v-.2c0-.5-.2-1-.4-1.4v-.4c0-.5-.2-.9-.4-1.2V88c0-.6-.3-1.2-.9-1.5v-.9c0-.5-.4-.9-.9-1V80c0-.1-.1-.3-.3-.3v62.1h7.4c.2 0 .3-.1.3-.3V134c-.1 0-.2-.1-.4-.1z"/><path class="st18" d="M17.4 109.9l-1.6-.1v1.2z"/><path class="st18" d="M16.5 108.6l-1.4.7.8.8z"/><path class="st11" d="M14.7 107.6l-.8 2h1.5zm-2.8 2.3l1.7-.1v1.2z"/><path class="st11" d="M12.8 108.6l1.4.7-.8.8z"/><path class="st18" d="M14.7 107.6l-.8 2h1.5zm-2.8 2.3l1.7-.1v1.2z"/><path class="st18" d="M12.8 108.6l1.4.7-.8.8z"/><path class="st17" d="M14.7 112.1c-1.4 0-1.7-.8-1.8-.9v-.2c0-1 .8-1.8 1.8-1.8s1.8.8 1.8 1.8c-.1.3-.3 1.1-1.8 1.1z"/><path class="st19" d="M14.7 112.1c-1.4 0-1.7-.8-1.8-.9v-.2c0-1 .8-1.8 1.8-1.8s1.8.8 1.8 1.8c-.1.3-.3 1.1-1.8 1.1z"/><path class="st18" d="M10.5 112.3L8.8 114v-7.1h1.3zm2 2.1l-2-2.1-1.7 1.7 3.1 4.7z"/><path fill="#dcdffb" stroke="#671cc9" stroke-width=".5" stroke-linecap="round" stroke-linejoin="round" stroke-miterlimit="10" d="M16.835 120.384l2.616-2.616 1.768 1.768-2.616 2.616z"/><path class="st21" d="M19.5 120.4c.2-.2.6-.2.9 0l.4.4-.9.9-.4-.4c-.3-.3-.3-.7 0-.9z"/><path class="st18" d="M9.7 135.6h10v7.5h-10z"/><path class="st13" d="M12.2 137.9v5.2"/><path class="st19" d="M17.2 137.9v5.2m-2.5-5.2v5.2"/><path class="st21" d="M9.2 134.4h11v1.2h-11z"/><path class="st18" d="M9.7 133.1h10v1.3h-10z"/><path class="st21" d="M9.2 131.9h11v1.2h-11z"/><path class="st18" d="M18.5 131.9H11l.9-13.2.6-4.3h4.7zm-3.8-18.3c-.7 0-1.3-.6-1.3-1.2v-1.3c0-.7.6-1.3 1.3-1.3.7 0 1.3.6 1.3 1.3v1.3c-.1.6-.6 1.2-1.3 1.2z"/><path class="st21" d="M14.7 114.8c-.3 0-.5-.2-.5-.5v-.8h1v.8c0 .3-.2.5-.5.5z"/><path class="st19" d="M11.9 119.7l5.3-5.3m.4 5.1l-6.2 6.2m6.5-.9l-6.9 6.9m5.3-5.3v5.5"/><path class="st21" d="M17.2 114.4l1.8 3.8-1.4 1.4z"/><path class="st18" d="M7.6 103.9h3.8v.8H7.6z"/><path class="st19" d="M9.5 104.9v3.2"/><path class="st21" d="M10.7 106.2c0 .3-.3.6-.6.6H8.8v-1.3h1.3c.3.1.6.4.6.7z"/><path class="st19" d="M8.6 104.9h1.7"/><path class="st18" d="M8.8 103.9s-1.1-.7-.3-1.8c.6-.8.4-1.7.3-2 0 0 1.6.3 2 1.9.3 1.4-.6 1.8-.6 1.8l-1.4.1z"/><path class="st6" d="M21.4 119.3l-1.8-1.8c-.1-.1-.3-.1-.4 0l-.2.2-1.6-3.5c0-.1-.1-.1-.2-.1h-1.8v-.5c.4-.3.7-.8.7-1.3v-.3c.4-.3.5-.7.5-.8v-.4l.9-.6c.1-.1.1-.2.1-.3 0-.1-.1-.2-.2-.2l-1.1-.1.4-.8c0-.1 0-.2-.1-.3-.1-.1-.2-.1-.3-.1l-1.1.5-.5-1.3c0-.1-.2-.2-.3-.2s0 36 0 36h5.1c.1 0 .3-.1.3-.3v-7.3h.2c.1 0 .2-.1.2-.3v-1.2c0-.1-.1-.2-.3-.2h-.2v-.8h.3c.1 0 .2-.1.2-.3v-1.2c0-.1 0-.1-.1-.2 0 0-.1-.1-.2-.1h-1.5L18 122l.4.4c.1.1.3.1.4 0l.7-.7.3.3c.1.1.3.1.4 0l.9-.9c.1-.1.1-.3 0-.4l-.3-.3.7-.7c0-.1 0-.3-.1-.4z"/><path fill="#525dea" stroke="#3f02a8" stroke-width=".5" stroke-miterlimit="10" d="M-35.6 153.7h3.7v-2.5l-.3-6.2h-3l-.4 6.2z"/><path class="st12" d="M-35.6 151.2h3.7V150h-3.6z"/><path id="XMLID_6_" fill="#844bdd" d="M-56.2 143.7h82.5v1.3h-82.5z"/><defs><path id="SVGID_3_" d="M-56.2 143.7h82.5v1.3h-82.5z"/></defs><clipPath id="SVGID_4_"><use xlink:href="#SVGID_3_" overflow="visible"/></clipPath><path opacity=".3" clip-path="url(#SVGID_4_)" fill="#525dea" d="M-56.2 144.3h82.5v.6h-82.5z"/><path class="st21" d="M-56.2 143.7h82.5v1.3h-82.5z"/><path class="st13" d="M-35 128.2s-7.8 11.8-18.8 15.5m12.4 0v-8m4.3 8V131m-12.8 12.7V142m4.2 1.7v-4.4m13.4-11.1s7.3 11.8 17.5 15.5m-11.6 0v-8m-3.9 8V131m11.9 12.7V142m-4 1.7v-4.4"/><path class="st19" d="M3.4 128.2s-7.3 11.8-17.5 15.5"/><path class="st16" d="M-2.6 143.7v-8"/><path class="st19" d="M1.4 143.7V131"/><path class="st13" d="M-10.5 143.7V142m3.9 1.7v-4.4"/><path class="st11" d="M-35 125.6h2.5V145H-35z"/><path class="st12" d="M-35.3 125.5h3v1.3h-3z"/><path class="st21" d="M6.4 153.7H2.6v-2.5L3 145h3l.4 6.2z"/><path class="st21" d="M6.4 151.2H2.6l.1-1.2h3.6z"/><path class="st19" d="M5.7 128.2s7.8 11.8 18.8 15.5m-12.4 0v-8m-4.2 8V131m12.8 12.7V142m-4.3 1.7v-4.4"/><path class="st18" d="M3.2 125.6h2.5V145H3.2z"/><path class="st21" d="M3 125.6h3v1.3H3z"/><path class="st6" d="M6.6 151.2v-.5l-.4-5.7c0-.1-.1-.2-.2-.2v-17.7c.1 0 .3-.1.3-.3v-1.3c0-.1-.1-.3-.3-.3H4.5V154h1.9c.1 0 .3-.1.3-.3l-.1-2.5zm-38.7 0v-.5l-.3-5.7c0-.1-.1-.2-.2-.2v-17.7c.1 0 .3-.1.3-.3v-1.3c0-.1-.1-.3-.3-.3h-1.5V154h1.9c.1 0 .3-.1.3-.3l-.2-2.5c.1 0 .1 0 0 0 .1 0 .1 0 0 0z"/><path class="st8" d="M229 163h-92c-2.2 0-4-1.8-4-4V67c0-2.2 1.8-4 4-4h92c2.2 0 4 1.8 4 4v92c0 2.2-1.8 4-4 4z"/><path class="st12" d="M149.8 141.6h5l3.8-12.5h-4.4z"/><path class="st12" d="M158.2 130.4h-4.5l.5-1.3h4.4z"/><path class="st21" d="M162.3 90.4h-2.5l-2.5 22.5-2.2 13.7h4l1.5-13.7z"/><path class="st13" d="M154.8 141.6l-3.6-3.8h4.7l-3.4-3.8h4.4l-3.2-3.6m-3.9 11.2l6.1-3.8m-4.7 0l5.7-3.8m-4.4 0l5.7-3.6"/><path class="st19" d="M159.1 126.6l-3.4-3.9h3.8l-3.2-3.8h3.5l-2.9-3.5m-2 11.2l4.6-3.9m-3.8 0l4.1-3.8m-3.5 0l4-3.5m.2-2.5L158 107h3l-2.4-5.6h2.8l-2.2-5.5h2.7l-2.1-5.5m-2.5 22.5l3.7-5.9m-3 0l3.4-5.6m-2.8 0l3.3-5.5m-2.7 0l3.1-5.5"/><path class="st12" d="M174.8 141.6h-5l-3.7-12.5h4.4z"/><path class="st12" d="M166.5 130.4h4.4l-.4-1.3h-4.4z"/><path class="st21" d="M162.4 90.4h2.5l2.4 22.5 2.3 13.7h-4l-1.5-13.7z"/><path class="st13" d="M169.8 141.6l3.7-3.8h-4.7l3.4-3.8h-4.5l3.2-3.6m3.9 11.2l-6-3.8m4.7 0l-5.8-3.8m4.5 0l-5.7-3.6"/><path class="st19" d="M165.6 126.6l3.3-3.9h-3.7l3.1-3.8h-3.5l3-3.5m2 11.2l-4.6-3.9m3.7 0l-4.1-3.8m3.5 0l-3.9-3.5m-.3-2.5l2.6-5.9h-3l2.4-5.6h-2.9l2.3-5.5h-2.7l2.1-5.5m2.4 22.5l-3.6-5.9m3 0l-3.5-5.6m2.9 0l-3.3-5.5m2.7 0l-3.1-5.5"/><path class="st12" d="M166.5 130.4h-8.3l.4-1.3h7.5z"/><path class="st21" d="M159.8 87.9h5v2.5h-5z"/><path class="st12" d="M166.5 130.4h4.4l-.4-1.3h-4.4zm-12.3-3.8h16.3v2.5h-16.3z"/><path class="st21" d="M156.9 112.9h10.8v2.5h-10.8zm4.7-32.5h1.5v7.5h-1.5z"/><path d="M162.3 80.4h0c-.1 0-.3-.1-.3-.3v-4.5c0-.1.1-.3.3-.3h0c.1 0 .3.1.3.3v4.5c0 .2-.2.3-.3.3z" fill="#525dea" stroke="#5b60c1" stroke-width=".5" stroke-linecap="round" stroke-linejoin="round" stroke-miterlimit="10"/><path class="st19" d="M156.9 114.1h10.9"/><path class="st12" d="M167.2 132.9s-1.4-1.3-4.9-1.3-4.9 1.3-4.9 1.3l.8-2.5h8.3l.7 2.5z"/><path class="st6" d="M169.7 141.9L167 133c-.3-.2-1.7-1.1-4.7-1.1v-5.5h2.9l-1.1-10.8h-1.8v-3h1.5l-1.5-22V75.1c.3 0 .5.2.5.5v4.5h.5v7.5h1.8v2.5l2.5 22.5h.4v2.7l1.8 11h.9v2.7l4.4 12.8-5.4.1z" opacity=".1"/><path class="st11" d="M182.8 115.9h10v28.5h-10z"/><path class="st12" d="M184.7 140.6h6.3v2.5h-6.3z"/><path class="st11" d="M210.3 117.1h-17.5v5.3s1.9-3.9 8.7-3.9 8.8 3.9 8.8 3.9v-5.3zm0-1.2h10v28.5h-10z"/><path class="st12" d="M189.7 140.6h-3.8V135c0-1 .8-1.9 1.9-1.9 1 0 1.9.8 1.9 1.9v5.6zm23.8 0h3.8V135c0-1-.8-1.9-1.9-1.9-1 0-1.9.8-1.9 1.9v5.6zm-1.3 0h6.3v2.5h-6.3z"/><path class="st11" d="M182.3 129.3h10.5v1.3h-10.5zm28.1 0h10.5v1.3h-10.5zm-25.1-8.2h5v3.8h-5zm27.6 0h5v3.8h-5zm-30.1-5.2h37.5v1.3h-37.5zm-.5-3.8h38.5v1.3h-38.5zm0-5h38.5v1.3h-38.5zm.5 6.3h37.5v2.5h-37.5z"/><path class="st11" d="M182.8 108.4h37.5v3.8h-37.5z"/><path class="st13" d="M186.2 110.8v-1.1m3.4 1.1v-1.1m3.4 1.1v-1.1m3.5 1.1v-1.1m3.4 1.1v-1.1m3.4 1.1v-1.1m3.4 1.1v-1.1m3.4 1.1v-1.1m3.4 1.1v-1.1m3.4 1.1v-1.1"/><g class="st27"><path class="st10" d="M210.1 144.4v-22c-.1-.2-.6-1-1.7-1.8-1.2-.9-3.3-1.9-6.8-1.9h-.3v-11.8h19.8v1.8h-.5v3.3h.5v1.8h-.5v15.5h.5v1.8h-.5v13.6h-10.5v-.3z"/></g><path class="st21" d="M225.5 141.9h-85c-.7 0-1.2.6-1.2 1.3s.6 1.3 1.2 1.3h85c.7 0 1.3-.6 1.3-1.3-.1-.8-.7-1.3-1.3-1.3z"/><path class="st6" d="M225.5 143.2h-85c-.7 0-1.2.3-1.2.7s.6.7 1.2.7h85c.7 0 1.3-.3 1.3-.7-.1-.4-.7-.7-1.3-.7z"/><path class="st11" d="M151.3 130.6h21.6v2.5h-21.6z"/><path class="st28" d="M200.8 129.3l-42 .1-1.9-3.5 45.9-.1z"/><path class="st28" d="M145.1 129.4l3.4-6.3h6.9l3.4 6.3z"/><path class="st28" d="M149.7 125.9l.5-.5c.5-.5 1.1-.7 1.7-.7.6 0 1.3.3 1.7.7l.5.5h-4.4z"/><path class="st18" d="M145.1 136.9h13.7v5h-13.7zm0-3.8h13.7v3.8h-13.7zm0-2.5h13.8v2.5h-13.8z"/><path class="st13" d="M148.5 133.1v-1"/><path class="st19" d="M152 133.1v-1m3.4 1v-1"/><path class="st18" d="M149.3 136.9h-1.5v-1.8c0-.4.3-.8.7-.8.4 0 .8.3.8.7v1.9z"/><path class="st13" d="M148.5 134.4l.1 2.5m-.8-1.3h1.5"/><path class="st18" d="M154.2 141.9h-4.5v-1.3c0-1.2 1-2.3 2.2-2.3 1.2 0 2.3 1 2.3 2.2v1.4z"/><path class="st19" d="M152 139.4v2.5"/><path class="st18" d="M149.7 125.9h4.5v3.5h-4.5zm3 11h-1.5v-1.8c0-.4.3-.8.7-.8.4 0 .8.3.8.7v1.9z"/><path class="st19" d="M152 134.4v2.5m-.8-1.3h1.5"/><path class="st18" d="M156.1 136.9h-1.5v-1.8c0-.4.3-.8.7-.8.4 0 .8.3.8.7v1.9z"/><path class="st19" d="M155.4 134.4v2.5m-.8-1.3h1.5"/><path class="st18" d="M152.7 129.4h-1.5v-1.8c0-.4.3-.8.7-.8.4 0 .8.3.8.7v1.9z"/><path class="st19" d="M152 126.9v2.5m-.8-1.3h1.5"/><path class="st13" d="M145.1 129.4v-1.3"/><path class="st19" d="M158.8 130.6v-2.5"/><path class="st13" d="M200.8 129.3v-1.2"/><path transform="translate(-.157 .187)" class="st18" d="M158.8 136.9h14.1v5h-14.1z"/><path transform="translate(-.152 .187)" class="st18" d="M158.8 133.1h14.1v3.8h-14.1z"/><path class="st19" d="M162.5 133.1v-1m3.4 1v-1m3.4 1v-1"/><path class="st18" d="M164.7 141.9h-4.5v-1.3c0-1.2 1-2.3 2.2-2.3 1.2 0 2.3 1 2.3 2.2v1.4z"/><path class="st19" d="M162.5 139.4v2.5"/><path class="st18" d="M171.6 141.9h-4.5v-1.3c0-1.2 1-2.3 2.2-2.3 1.2 0 2.3 1 2.3 2.2v1.4z"/><path class="st19" d="M169.3 139.4v2.5"/><path class="st18" d="M163.2 136.9h-1.5v-1.8c0-.4.3-.8.7-.8.4 0 .8.3.8.7v1.9z"/><path class="st19" d="M162.5 134.4v2.5m-.8-1.3h1.5"/><path class="st18" d="M166.6 136.9h-1.5v-1.8c0-.4.3-.8.7-.8.4 0 .8.3.8.7v1.9z"/><path class="st19" d="M165.9 134.4v2.5m-.8-1.3h1.5"/><path class="st18" d="M170.1 136.9h-1.5v-1.8c0-.4.3-.8.7-.8.4 0 .8.3.8.7v1.9z"/><path class="st19" d="M169.3 134.4v2.5m-.7-1.3h1.5"/><path transform="translate(-.157 .218)" class="st11" d="M186.7 136.8h14.1v5h-14.1z"/><path transform="translate(-.152 .218)" class="st11" d="M186.7 133.1h14.1v3.8h-14.1z"/><path transform="translate(-.148 .217)" class="st11" d="M185.9 130.5h14.9v2.6h-14.9z"/><path class="st13" d="M193.7 133.1v-1m3.4 1v-1"/><path class="st11" d="M194.5 136.8H193V135c0-.4.3-.8.7-.8.4 0 .8.3.8.7v1.9z"/><path class="st13" d="M193.7 134.3v2.5m-.7-1.2h1.5"/><path class="st11" d="M199.4 141.8h-4.5v-1.3c0-1.2 1-2.3 2.2-2.3 1.2 0 2.3 1 2.3 2.2v1.4z"/><path class="st13" d="M197.1 139.3v2.5"/><path class="st11" d="M192.6 141.8h-4.5v-1.3c0-1.2 1-2.3 2.2-2.3 1.2 0 2.3 1 2.3 2.2v1.4z"/><path class="st13" d="M190.3 139.3v2.5"/><path class="st11" d="M197.9 136.8h-1.5V135c0-.4.3-.8.7-.8.4 0 .8.3.8.7v1.9z"/><path class="st13" d="M197.1 134.3v2.5m-.7-1.2h1.5"/><path class="st11" d="M173 136.8h13.8v5H173z"/><path class="st18" d="M173 133.1h13.8v3.8H173zm0-2.5h13.8v2.5H173z"/><path class="st19" d="M176.4 133.1v-1"/><path class="st13" d="M179.8 133.1v-1m3.4 1v-1"/><path class="st11" d="M177.2 136.8h-1.5V135c0-.4.3-.8.7-.8.4 0 .8.3.8.7v1.9z"/><path class="st13" d="M176.4 134.4v2.5m-.7-1.3h1.5"/><path class="st11" d="M182.1 141.8h-4.5v-1.3c0-1.2 1-2.3 2.2-2.3 1.2 0 2.3 1 2.3 2.2v1.4z"/><path class="st13" d="M179.8 139.3v2.5"/><path class="st11" d="M180.6 136.8h-1.5V135c0-.4.3-.8.7-.8.4 0 .8.3.8.7v1.9z"/><path class="st13" d="M179.8 134.3v2.5m-.7-1.2h1.5"/><path class="st11" d="M184 136.8h-1.5V135c0-.4.3-.8.7-.8.4 0 .8.3.8.7v1.9z"/><path class="st13" d="M183.2 134.3v2.5m-.7-1.2h1.5"/><path class="st28" d="M175.5 128.1v-4c0-1.3.6-2.6 1.6-3.1 1.7-1 3.9-1 5.6 0 1 .5 1.6 1.8 1.6 3.1v4h-8.8z"/><path class="st28" d="M175.1 124.6l4.7-2.5 4.8 2.5z"/><path class="st18" d="M175.1 124.6h9.5v3.5h-9.5z"/><path class="st11" d="M180.6 128.1h-1.5v-1.8c0-.4.3-.8.7-.8.4 0 .8.3.8.7v1.9z"/><path class="st13" d="M179.8 125.6v2.5m-.7-1.2h1.5"/><path class="st18" d="M177.8 128.1h-1.5v-1.8c0-.4.3-.8.7-.8.4 0 .8.3.8.7v1.9z"/><path class="st19" d="M177.1 125.6v2.5m-.8-1.2h1.5"/><path class="st11" d="M183.3 128.1h-1.5v-1.8c0-.4.3-.8.7-.8.4 0 .8.3.8.7v1.9z"/><path class="st13" d="M182.6 125.6v2.5m-.8-1.2h1.5"/><path class="st19" d="M175.5 124.6l-.1-2.8"/><path class="st13" d="M184.2 124.6v-2.8m-4.4-1.6v-2.8"/><path class="st29" d="M200.8 129.3l3.5-6.2h6.8l3.5 6.2z"/><path class="st29" d="M205.5 125.8l.5-.5c.5-.5 1.1-.7 1.7-.7.6 0 1.3.3 1.7.7l.5.5h-4.4z"/><path class="st11" d="M200.8 136.8h13.8v5h-13.8z"/><path class="st11" d="M200.8 133.1h13.8v3.8h-13.8zm0-2.5h13.8v2.5h-13.8z"/><path class="st18" d="M144.8 129.3h70v1.3h-70z"/><path class="st13" d="M204.3 133.1v-1m3.4 1v-1m3.4 1v-1"/><path class="st11" d="M205.1 136.8h-1.5V135c0-.4.3-.8.7-.8.4 0 .8.3.8.7v1.9z"/><path class="st13" d="M204.3 134.3v2.5m-.7-1.2h1.5"/><path class="st11" d="M210 141.8h-4.5v-1.3c0-1.2 1-2.3 2.2-2.3 1.2 0 2.3 1 2.3 2.2v1.4z"/><path class="st13" d="M207.7 139.3v2.5"/><path class="st11" d="M205.5 125.8h4.5v3.5h-4.5zm3 11H207V135c0-.4.3-.8.7-.8.4 0 .8.3.8.7v1.9z"/><path class="st13" d="M207.7 134.3v2.5m-.7-1.2h1.5"/><path class="st11" d="M211.9 136.8h-1.5V135c0-.4.3-.8.7-.8.4 0 .8.3.8.7v1.9z"/><path class="st13" d="M211.1 134.3v2.5m-.7-1.2h1.5"/><path class="st11" d="M208.5 129.3H207v-1.8c0-.4.3-.8.7-.8.4 0 .8.3.8.7v1.9z"/><path class="st13" d="M207.7 126.8v2.5m-.7-1.2h1.5m6.1 1.2v-1.2"/><path class="st18" d="M173 128.1h13.8v1.3H173z"/><path class="st13" d="M190.3 133.1v-1"/><path class="st11" d="M191.1 136.8h-1.5V135c0-.4.3-.8.7-.8.4 0 .8.3.8.7v1.9z"/><path class="st13" d="M190.3 134.3v2.5m-.7-1.2h1.5"/><path class="st30" d="M214.8 129.1v-1c0-.1-.1-.2-.3-.2-.1 0-.2.1-.2.3v.3l-3-5.4c0-.1-.1-.1-.2-.1h-3.4v19.3h6.9c.1 0 .2-.1.2-.3v-11c.1 0 .2-.1.2-.3v-1.3c.1-.2 0-.3-.2-.3z"/><path class="st19" d="M158.8 131.1v-1.7"/><path class="st13" d="M186.7 130.9v-1.6m14.1 1.6v-1.7"/><path class="st30" d="M187 128.1c0-.1-.1-.2-.3-.2h-1.9v-3.3l-.2-.1V122c0-.1-.1-.2-.3-.2-.1 0-.2.1-.2.3v.2c-.3-.5-.7-1-1.2-1.3-.8-.5-1.7-.7-2.7-.8v-2.6c0-.1-.1-.2-.3-.2v25h7.1v-14.3zm-14.3 14h-6.8v-16.5h8.9v2.3h-1.9c-.1 0-.2.1-.2.2v14z"/><path class="st30" d="M187 142.1h6.8v-16.5h-8.9v2.3h1.9c.1 0 .3.1.3.2l-.1 14z"/><path class="st19" d="M173 131v-1.7"/><path class="st30" d="M159.1 129.1v-1c0-.1-.1-.2-.3-.2-.1 0-.2.1-.2.3v.3l-3-5.4c0-.1-.1-.1-.2-.1H152v19.3h6.9c.1 0 .3-.1.2-.3v-11c.1 0 .3-.1.2-.3v-1.3c0-.2-.1-.3-.2-.3z"/><path class="st18" d="M181.2 129.9l-18.7 16.2 18.7 2.5 18.8-2.5z"/><path class="st18" d="M181.2 149.8v-15l-12.5 12.7zm0 0v-15l12.5 12.7z"/><path class="st13" d="M172.7 148.2l8.5-8.4m-4.2 9.1l4.2-4.1"/><path class="st19" d="M172.7 148.2l8.5-8.4m-4.2 9.1l4.2-4.1m-4.3-5.6l.1 9.7m-4.5-5.2l.2 4.5m17 0l-8.5-8.4m4.2 9.1l-4.2-4.1m4.4-5.6l-.2 9.7m4.5-5.2l-.2 4.5"/><image width="182" height="182" xlink:href="790CE98D.png" transform="translate(0 24.3)" overflow="visible" opacity=".4"/><path d="M145 173.3H33c-2.2 0-4-1.8-4-4v-112c0-2.2 1.8-4 4-4h112c2.2 0 4 1.8 4 4v112c0 2.2-1.8 4-4 4z" fill="#fff" stroke="#ff57a4" stroke-width=".5" stroke-miterlimit="10"/><path class="st19" d="M51.5 105.5c0 20.7 16.8 37.5 37.5 37.5s37.5-16.8 37.5-37.5S109.7 68 89 68s-37.5 16.8-37.5 37.5zm5 0C56.5 87.6 71 73 89 73s32.5 14.6 32.5 32.5c0 18-14.6 32.5-32.5 32.5s-32.5-14.5-32.5-32.5z"/><path class="st19" d="M51.5 105.5l5.3-4.6L53 95l6.4-3-2-6.7 7-1v-7.1l7 1 2-6.8 6.4 2.9 3.8-5.9L89 73l5.3-4.6 3.8 5.9 6.5-2.9 2 6.8 6.9-1 .1 7.1 6.9 1-1.9 6.7 6.4 3-3.8 5.9 5.3 4.6-5.3 4.7 3.8 5.9-6.4 3 1.9 6.7-6.9 1-.1 7.1-6.9-1-2 6.8-6.5-3-3.8 6-5.3-4.6-5.4 4.6-3.8-6-6.4 3-2-6.8-7 1v-7.1l-7-1 2-6.7-6.4-3 3.8-5.9z"/><path class="st16" d="M89 73v65"/><path class="st19" d="M121.4 105.5H56.5m55.4-23L66 128.4m45.9 0L66 82.5m35.3-7l-24.7 60m42.4-17.7L59 93.1m59.9-.1L59 118m42.5 17.5l-25-60"/><path class="st32" d="M82.4 69.3h2.5c.7 0 1.3-.6 1.3-1.3 0-.7-.6-1.3-1.3-1.3h-2.5c-.7 0-1.3.6-1.3 1.3.1.7.6 1.3 1.3 1.3zM71.6 73h2.5c.7 0 1.3-.6 1.3-1.3 0-.7-.6-1.3-1.3-1.3h-2.5c-.7 0-1.3.6-1.3 1.3 0 .8.6 1.3 1.3 1.3zm-8.5 5.5h2.5c.7 0 1.3-.6 1.3-1.3 0-.7-.6-1.3-1.3-1.3h-2.5c-.7 0-1.3.6-1.3 1.3.1.7.6 1.3 1.3 1.3zm-7 8.2h2.5c.7 0 1.3-.6 1.3-1.3 0-.7-.6-1.3-1.3-1.3h-2.5c-.7 0-1.3.6-1.3 1.3 0 .7.6 1.3 1.3 1.3zM51 96.5h3.8c.3 0 .6-.3.6-.6v-1.3c0-.3-.3-.6-.6-.6H51c-.3 0-.6.3-.6.6v1.3c0 .3.3.6.6.6zm-.8 10.3h2.5c.7 0 1.3-.6 1.3-1.3 0-.7-.6-1.3-1.3-1.3h-2.5c-.7 0-1.3.6-1.3 1.3.1.7.6 1.3 1.3 1.3zm1.5 10.2h2.5c.7 0 1.3-.6 1.3-1.3 0-.7-.6-1.3-1.3-1.3h-2.5c-.7 0-1.3.6-1.3 1.3.1.8.6 1.3 1.3 1.3zm4.3 9.7h2.5c.7 0 1.3-.6 1.3-1.3 0-.7-.6-1.3-1.3-1.3H56c-.7 0-1.3.6-1.3 1.3 0 .8.6 1.3 1.3 1.3zm6.8 8.4h2.5c.7 0 1.3-.6 1.3-1.3 0-.7-.6-1.3-1.3-1.3h-2.5c-.7 0-1.3.6-1.3 1.3 0 .7.6 1.3 1.3 1.3zm9 5.7h2.5c.7 0 1.3-.6 1.3-1.3 0-.7-.6-1.3-1.3-1.3h-2.5c-.7 0-1.3.6-1.3 1.3.1.7.6 1.3 1.3 1.3zm10.5 3.1h2.5c.7 0 1.3-.6 1.3-1.3 0-.7-.6-1.3-1.3-1.3h-2.5c-.7 0-1.3.6-1.3 1.3 0 .7.6 1.3 1.3 1.3z"/><path class="st21" d="M82.4 69.3h2.5c.7 0 1.3-.6 1.3-1.3 0-.7-.6-1.3-1.3-1.3h-2.5c-.7 0-1.3.6-1.3 1.3.1.7.6 1.3 1.3 1.3zM71.6 73h2.5c.7 0 1.3-.6 1.3-1.3 0-.7-.6-1.3-1.3-1.3h-2.5c-.7 0-1.3.6-1.3 1.3 0 .8.6 1.3 1.3 1.3zm-8.5 5.5h2.5c.7 0 1.3-.6 1.3-1.3 0-.7-.6-1.3-1.3-1.3h-2.5c-.7 0-1.3.6-1.3 1.3.1.7.6 1.3 1.3 1.3zm-7 8.2h2.5c.7 0 1.3-.6 1.3-1.3 0-.7-.6-1.3-1.3-1.3h-2.5c-.7 0-1.3.6-1.3 1.3 0 .7.6 1.3 1.3 1.3zM51 96.5h3.8c.3 0 .6-.3.6-.6v-1.3c0-.3-.3-.6-.6-.6H51c-.3 0-.6.3-.6.6v1.3c0 .3.3.6.6.6zm-.8 10.3h2.5c.7 0 1.3-.6 1.3-1.3 0-.7-.6-1.3-1.3-1.3h-2.5c-.7 0-1.3.6-1.3 1.3.1.7.6 1.3 1.3 1.3zm1.5 10.2h2.5c.7 0 1.3-.6 1.3-1.3 0-.7-.6-1.3-1.3-1.3h-2.5c-.7 0-1.3.6-1.3 1.3.1.8.6 1.3 1.3 1.3zm4.3 9.7h2.5c.7 0 1.3-.6 1.3-1.3 0-.7-.6-1.3-1.3-1.3H56c-.7 0-1.3.6-1.3 1.3 0 .8.6 1.3 1.3 1.3zm6.8 8.4h2.5c.7 0 1.3-.6 1.3-1.3 0-.7-.6-1.3-1.3-1.3h-2.5c-.7 0-1.3.6-1.3 1.3 0 .7.6 1.3 1.3 1.3z"/><path class="st32" d="M71.8 140.8h2.5c.7 0 1.3-.6 1.3-1.3 0-.7-.6-1.3-1.3-1.3h-2.5c-.7 0-1.3.6-1.3 1.3.1.7.6 1.3 1.3 1.3z"/><path class="st21" d="M82.3 143.9h2.5c.7 0 1.3-.6 1.3-1.3 0-.7-.6-1.3-1.3-1.3h-2.5c-.7 0-1.3.6-1.3 1.3 0 .7.6 1.3 1.3 1.3zm13.2-74.6H93c-.7 0-1.3-.6-1.3-1.3 0-.7.6-1.3 1.3-1.3h2.5c.7 0 1.3.6 1.3 1.3 0 .7-.6 1.3-1.3 1.3zm10.9 3.7h-2.5c-.7 0-1.3-.6-1.3-1.3 0-.7.6-1.3 1.3-1.3h2.5c.7 0 1.3.6 1.3 1.3-.1.8-.6 1.3-1.3 1.3zm8.4 5.5h-2.5c-.7 0-1.3-.6-1.3-1.3 0-.7.6-1.3 1.3-1.3h2.5c.7 0 1.3.6 1.3 1.3 0 .7-.6 1.3-1.3 1.3zm7.1 8.2h-2.5c-.7 0-1.3-.6-1.3-1.3 0-.7.6-1.3 1.3-1.3h2.5c.7 0 1.3.6 1.3 1.3-.1.7-.6 1.3-1.3 1.3zm5 9.8h-3.8c-.3 0-.6-.3-.6-.6v-1.3c0-.3.3-.6.6-.6h3.8c.3 0 .6.3.6.6v1.3c0 .3-.2.6-.6.6zm.8 10.3h-2.5c-.7 0-1.3-.6-1.3-1.3 0-.7.6-1.3 1.3-1.3h2.5c.7 0 1.3.6 1.3 1.3 0 .7-.6 1.3-1.3 1.3zm-1.5 10.2h-2.5c-.7 0-1.3-.6-1.3-1.3 0-.7.6-1.3 1.3-1.3h2.5c.7 0 1.3.6 1.3 1.3 0 .8-.6 1.3-1.3 1.3zm-4.2 9.7h-2.5c-.7 0-1.3-.6-1.3-1.3 0-.7.6-1.3 1.3-1.3h2.5c.7 0 1.3.6 1.3 1.3 0 .8-.6 1.3-1.3 1.3zm-6.8 8.4h-2.5c-.7 0-1.3-.6-1.3-1.3 0-.7.6-1.3 1.3-1.3h2.5c.7 0 1.3.6 1.3 1.3 0 .7-.6 1.3-1.3 1.3z"/><path class="st32" d="M106.2 140.8h-2.5c-.7 0-1.3-.6-1.3-1.3 0-.7.6-1.3 1.3-1.3h2.5c.7 0 1.3.6 1.3 1.3-.1.7-.7 1.3-1.3 1.3z"/><path class="st21" d="M95.7 143.9h-2.5c-.7 0-1.3-.6-1.3-1.3 0-.7.6-1.3 1.3-1.3h2.5c.7 0 1.3.6 1.3 1.3-.1.7-.6 1.3-1.3 1.3z"/><path class="st28" d="M82.2 97.4h13.6v55.5H82.2z"/><path class="st19" d="M93.5 152.9v-45.1m-2.2 45.1v-45.1M89 152.9v-45.1m-2.3 45.1v-45.1m-2.3 45.1v-45.1"/><path class="st28" d="M81.2 102.7h15.6v10.2H81.2z"/><path class="st14" d="M83.9 88.7h10.2v3.4H83.9z"/><path class="st28" d="M83.2 102.7h11.6v10.2H83.2zm-1 16.3h13.6v1.7H82.2zm0 8.5h13.6v1.7H82.2zm0 7.7h13.6v1.7H82.2zm0 8.5h13.6v1.7H82.2z"/><path class="st18" d="M84.9 107.8c0 2.3 1.8 4.1 4.1 4.1s4.1-1.8 4.1-4.1-1.8-4.1-4.1-4.1c-2.3.1-4.1 1.9-4.1 4.1z"/><path class="st19" d="M89 105.1v2.7h-1.4"/><path class="st16" d="M91.5 91.1v-1.4M89 91.1v-1.4m-2.6 1.4v-1.4"/><path class="st19" d="M95.8 97.4v-1.5m-13.6 1.5v-1.5m-1 6.8v-1.5m15.6 1.5v-1.5"/><path class="st16" d="M83.9 88.7v-1.5m10.2 1.5v-1.5"/><path class="st19" d="M89 75.1v-1.5m2.5 27.4v-1.4M89 101v-1.4m5.1 1.4v-1.4m-7.7 1.4v-1.4m-2.5 1.4v-1.4"/><path class="st21" d="M82.2 97.4h13.6s-1.7-2.7-1.7-5.3H83.9c0 2.7-1.7 5.3-1.7 5.3zm1.7-8.7h10.2C91.3 84 89 75.1 89 75.1s-2.3 8.9-5.1 13.6z"/><g class="st27"><path class="st6" d="M89 153.2v-80s.3.1.3.3V75c.8 2.7 2.7 9.3 4.5 12.6v-.4s.1-.3.3-.3c.2 0 .3.3.3.3v5.3s.1 2 1.1 3.8V96s0-.3.3-.3.3.3.3.3v6.5h1v10.8h-1v40H89v-.1z"/></g><path class="st21" d="M140 150.3H38c-.8 0-1.5.7-1.5 1.5s.7 1.5 1.5 1.5h102c.8 0 1.5-.7 1.5-1.5s-.7-1.5-1.5-1.5z"/><path class="st6" d="M140 152H38c-.8 0-1.5.4-1.5.8 0 .5.7.8 1.5.8h102c.8 0 1.5-.4 1.5-.8 0-.5-.7-.8-1.5-.8z"/><path class="st21" d="M75.5 131.9h27v3h-27z"/><path class="st6" d="M75.5 133.4h27v1.8h-27z"/><path id="XMLID_54_" class="st21" d="M101 152.2l-9.1-11.3 1-1 9.6 9.5z"/><defs><path id="SVGID_5_" d="M101 152.2l-9.1-11.3 1-1 9.6 9.5z"/></defs><clipPath id="SVGID_6_"><use xlink:href="#SVGID_5_" overflow="visible"/></clipPath><path opacity=".3" clip-path="url(#SVGID_6_)" fill="#525dea" d="M91.9 140.4l-.4.4 9.9 12 .6-1.3z"/><path class="st19" d="M101 152.2l-9.1-11.3 1-1 9.6 9.5z"/><path class="st28" d="M102.5 130.2h9V149h-9z"/><path class="st18" d="M101 149h12v10.5h-12z"/><g class="st27"><path class="st6" d="M107 159.8v-38.9s.2 0 .3.2l2.1 4.3.3-1.2s.1-.2.3-.2c.1 0 .2.2.2.2l1.5 6v18.5h1.5v11.1H107z"/></g><path class="st19" d="M102.5 139.6h9v1.7h-9zm0-4.9h9v1.7h-9zm0 9.6h9v1.7h-9zm1.9 3.9v-1.4m2.6 1.4v-1.4m2.5 1.4v-1.4m-5.1-3.3v-1.4m2.6 1.4v-1.4m2.5 1.4v-1.4m-5.1-3.4v-1.4m2.6 1.4v-1.4m2.5 1.4v-1.4m-5.1-3.5v-1.4m2.6 1.4v-1.4m2.5 1.4v-1.4"/><path id="XMLID_53_" class="st21" d="M113 150.5h21v1.5h-21z"/><defs><path id="SVGID_7_" d="M113 150.5h21v1.5h-21z"/></defs><clipPath id="SVGID_8_"><use xlink:href="#SVGID_7_" overflow="visible"/></clipPath><path opacity=".3" clip-path="url(#SVGID_8_)" fill="#525dea" d="M113 151.2h21v.8h-21z"/><path class="st19" d="M113 150.5h21v1.5h-21z"/><path class="st18" d="M134 149h6v10.5h-6z"/><g class="st27"><path class="st6" d="M137 148.7h3.3v11.1H137z"/></g><path class="st19" d="M111.5 131.9s9.4 14.1 22.5 18.6m-14.9 0v-9.7m-2.5 9.7v-12.3"/><path class="st13" d="M121.7 150.5v-7.4"/><path class="st19" d="M114 150.5v-15.2m15.4 15.2v-2.1m-2.6 2.1v-3.6m5.1 3.6v-.8m-7.6.8v-5.3m-2.6 5.3v-7.4"/><path class="st21" d="M111.5 130.2h-9l4.5-9z"/><path class="st21" d="M105.5 130.2h-3l1.5-6zm6 0h-3l1.5-6z"/><path id="XMLID_52_" class="st21" d="M76.9 152.2l9.2-11.3-1.1-1-9.5 9.5z"/><defs><path id="SVGID_9_" d="M76.9 152.2l9.2-11.3-1.1-1-9.5 9.5z"/></defs><clipPath id="SVGID_10_"><use xlink:href="#SVGID_9_" overflow="visible"/></clipPath><path opacity=".3" clip-path="url(#SVGID_10_)" fill="#525dea" d="M86.1 140.4l.4.4-9.9 12-.7-1.3z"/><path class="st19" d="M76.9 152.2l9.2-11.3-1.1-1-9.5 9.5z"/><path class="st28" d="M66.5 130.2h9V149h-9z"/><path class="st18" d="M65 149h12v10.5H65z"/><path class="st28" d="M66.5 139.6h9v1.7h-9zm0-4.9h9v1.7h-9zm0 9.6h9v1.7h-9z"/><path class="st19" d="M68.4 148.2v-1.4m2.6 1.4v-1.4m2.5 1.4v-1.4m-5.1-3.3v-1.4m2.6 1.4v-1.4m2.5 1.4v-1.4m-5.1-3.4v-1.4m2.6 1.4v-1.4m2.5 1.4v-1.4m-5.1-3.5v-1.4m2.6 1.4v-1.4m2.5 1.4v-1.4"/><path id="XMLID_51_" class="st21" d="M44 150.5h21v1.5H44z"/><defs><path id="SVGID_11_" d="M44 150.5h21v1.5H44z"/></defs><clipPath id="SVGID_12_"><use xlink:href="#SVGID_11_" overflow="visible"/></clipPath><path opacity=".3" clip-path="url(#SVGID_12_)" fill="#525dea" d="M44 151.2h21v.8H44z"/><path class="st19" d="M44 150.5h21v1.5H44z"/><path class="st18" d="M38 149h6v10.5h-6z"/><g class="st27"><path class="st6" d="M41 148.7h3.3v11.1H41z"/></g><path class="st19" d="M66.5 131.9S57.1 146 44 150.5m14.8 0v-9.7m2.6 9.7v-12.3"/><path class="st13" d="M56.3 150.5v-7.4"/><path class="st19" d="M63.9 150.5v-15.2m-15.3 15.2v-2.1m2.5 2.1v-3.6"/><path class="st16" d="M46 150.5v-.8"/><path class="st19" d="M53.7 150.5v-5.3m2.6 5.3v-7.4"/><path class="st21" d="M75.5 130.2h-9l4.5-9z"/><path class="st21" d="M69.5 130.2h-3l1.5-6zm6 0h-3l1.5-6z"/><g class="st27"><path class="st6" d="M71 159.8v-38.9s.2 0 .3.2l2.1 4.3.3-1.2s.1-.2.3-.2c.1 0 .2.2.2.2l1.5 6v18.5h1.5v11.1H71z"/></g><path id="XMLID_1_" class="st1" d="M0 0h178v190H0z"/><path transform="rotate(-30 33.484 21.906)" class="st37" d="M28.5 16.9h10v10h-10z"/><path class="st37" d="M80.4 198.5l4.1-14.1-13.2 4.8zM130.3 41c0 1.9-1.5 3.4-3.4 3.4s-3.4-1.5-3.4-3.4 1.5-3.4 3.4-3.4 3.4 1.5 3.4 3.4z"/></g></svg>