<svg xmlns="http://www.w3.org/2000/svg"  viewBox="0 0 30 30" width="160px" height="160px"><path fill="#e8d47b" d="M23,18.5c-1.379,0-2.5-1.122-2.5-2.5s1.121-2.5,2.5-2.5c2.075,0,2.5,0.6,2.5,1.5 C25.5,16.496,24.264,18.5,23,18.5z"/><path fill="#ba9b48" d="M23,14c2,0,2,0.531,2,1c0,1.239-1.034,3-2,3c-1.103,0-2-0.897-2-2S21.897,14,23,14 M23,13 c-1.657,0-3,1.343-3,3s1.343,3,3,3s3-2.343,3-4S24.657,13,23,13L23,13z"/><path fill="#e8d47b" d="M7,18.5c-1.264,0-2.5-2.004-2.5-3.5c0-0.9,0.425-1.5,2.5-1.5c1.379,0,2.5,1.122,2.5,2.5 S8.379,18.5,7,18.5z"/><path fill="#ba9b48" d="M7,14c1.103,0,2,0.897,2,2s-0.897,2-2,2c-0.966,0-2-1.761-2-3C5,14.531,5,14,7,14 M7,13 c-1.657,0-3,0.343-3,2s1.343,4,3,4s3-1.343,3-3S8.657,13,7,13L7,13z"/><path fill="#ffeea3" d="M15,27.944c-4.131,0-8.5-5.166-8.5-7.944v-9.5h17V20C23.5,22.778,19.131,27.944,15,27.944z"/><path fill="#ba9b48" d="M23,11v9c0,2.588-4.238,7.444-8,7.444S7,22.588,7,20v-9H23 M24,10H6v10 c0,3.083,4.582,8.444,9,8.444s9-5.361,9-8.444V10L24,10z"/><path fill="#839cb2" d="M15,11.5C3.888,11.5,1.784,9.264,1.5,8.869V8.5h4.934l1-7h15.133l1,7H28.5v0.382 C28.27,9.216,26.287,11.5,15,11.5z"/><path fill="#66798f" d="M22.133,2l0.877,6.141L23.133,9H24h3.621C26.598,9.69,23.53,11,15,11C6.532,11,3.441,9.696,2.394,9 H6h0.867L6.99,8.141L7.867,2h7.14H22.133 M23,1c0,0-5.126,0-7.993,0S7,1,7,1L6,8H1v1c0,0,1.062,3,14,3c13,0,14-3,14-3V8h-5L23,1 L23,1z"/><path fill="#bae0bd" d="M6.286 6L6 8 15.333 8 24 8 23.714 6z"/><path fill="#839cb2" d="M18,17.5c-0.463,0-0.908-0.285-1.162-0.743l-0.842-2.438l-0.026-0.044 c-0.192-0.319-0.545-0.518-0.921-0.518c-0.383,0-0.716,0.206-0.889,0.552c-0.475,0.88-1.012,2.463-1.034,2.53 C12.962,17.205,12.481,17.5,12,17.5H9c-0.499,0-0.912-0.305-1.055-0.777L6.5,13.88V13.5h17v0.379l-1.412,2.76 C21.912,17.195,21.499,17.5,21,17.5H18z"/><path fill="#66798f" d="M22.877 14l-1.234 2.411-.041.081-.026.087C21.498 16.839 21.277 17 21 17h-3c-.261 0-.52-.16-.688-.423l-.827-2.372-.034-.097-.053-.088c-.004-.006-.008-.013-.011-.019H22.877M13.758 14c-.011.019-.021.039-.031.059-.455.844-.95 2.258-1.055 2.564C12.559 16.837 12.271 17 12 17H9c-.277 0-.498-.161-.576-.421l-.026-.087-.041-.081L7.123 14H13.758M24 13H6v1l1.467 2.867C7.667 17.533 8.267 18 9 18h3c.667 0 1.333-.4 1.6-1 0 0 .541-1.6 1.007-2.467.095-.191.267-.276.442-.276.191 0 .387.101.492.276L16.4 17c.333.6.933 1 1.6 1h3c.733 0 1.333-.467 1.533-1.133L24 14V13L24 13zM23.724 6L23.582 5 6.724 5 6.582 6zM15.18 8L5.847 8 4.837 8 4.694 9 5.847 9 15.18 9 23.847 9 25 9 24.857 8 23.847 8z"/><g><path fill="#a16a4a" d="M14.5 23.5H15.5V26.5H14.5z"/><path fill="#b08159" d="M15,24v2V24 M16,23h-2v4h2V23L16,23z"/></g><path fill="#ba9b48" d="M12 22H18V23H12z"/><g><path fill="#e0ac89" d="M14,28.5c-3.441,0-3.499-3.358-3.5-3.501V23c0-1.378,1.121-2.5,2.5-2.5h4c1.379,0,2.5,1.122,2.5,2.5 v2c-0.002,0.137-0.095,3.5-3.5,3.5H14z M13,21.5c-0.827,0-1.5,0.673-1.5,1.5v2.309l2.382,1.191h2.236l2.382-1.191V23 c0-0.827-0.673-1.5-1.5-1.5H13z"/><path fill="#b08159" d="M19,23l0,1.99c0,0.001,0,0.003,0,0.004V23 M11,23v2V23 M11.069,25.653l0.484,0.242l2,1L13.764,27H14 h2h0.236l0.211-0.106l2-1l0.475-0.238C18.737,26.554,18.111,28,16,28h-2C11.863,28,11.246,26.565,11.069,25.653 M17,20h-4 c-1.65,0-3,1.35-3,3v2c0,0,0,4,4,4h2c3.958,0,4-4,4-4v-2C20,21.35,18.65,20,17,20L17,20z M14,26l-2-1v-2c0-0.552,0.448-1,1-1h4 c0.552,0,1,0.448,1,1v2l-2,1H14L14,26z"/></g><g><path fill="#5e9c76" d="M6.286 6L6 8 7.01 8 7.296 6zM22.704 6L22.99 8 24 8 23.714 6z"/></g></svg>