<svg fill="#000000" xmlns="http://www.w3.org/2000/svg"  viewBox="0 0 64 64" width="128px" height="128px"><path d="M 15 3 C 14.253497 3 13.548305 3.2575018 13.046875 3.7246094 C 12.545445 4.191717 12.264709 4.8276072 12.171875 5.484375 A 1.0001 1.0001 0 0 0 12.167969 5.5117188 L 10.763672 18 L 2.9492188 18 C 2.0118451 18 1.2984565 18.721704 1.0878906 19.447266 C 0.87732477 20.172827 1.0203656 21.067341 1.7265625 21.636719 A 1.0001 1.0001 0 0 0 1.8769531 21.738281 C 3.3973728 22.563876 6.0015136 23.567912 9.5371094 24.478516 C 9.6069331 25.033675 9.6784511 25.589076 9.7792969 26.140625 C 9.7792969 26.411625 9.8703906 26.640563 9.9003906 26.851562 C 9.9303906 27.061563 9.98 27.613687 10 28.054688 C 9.547 27.933688 9.0701875 27.933688 8.6171875 28.054688 C 6.2911875 28.675687 5.3598906 32.24475 6.4628906 36.34375 C 7.3248906 39.54075 9.1196719 41.884469 11.013672 42.355469 C 13.156992 49.113641 17.541556 55.829689 23.136719 59.390625 C 24.473716 61.556309 26.859867 63 29.599609 63 L 33.400391 63 C 36.126308 63 38.502898 61.571268 39.84375 59.423828 C 45.461857 55.87093 49.866168 49.134259 52.015625 42.357422 C 53.910625 41.846422 55.704406 39.49075 56.566406 36.34375 C 57.037406 34.68175 57.126172 32.934422 56.826172 31.232422 C 56.475172 29.508422 55.603625 28.377641 54.390625 28.056641 C 53.870625 27.926641 53.323406 27.950953 52.816406 28.126953 C 52.81806 26.97749 52.706946 25.832197 52.5 24.705078 C 56.498357 23.738161 59.400569 22.63249 61.046875 21.738281 A 1.0001 1.0001 0 0 0 61.126953 21.689453 C 62.683167 20.6423 61.905997 18 60.03125 18 L 52.214844 18 L 50.753906 5.5078125 A 1.0001 1.0001 0 0 0 50.751953 5.4824219 C 50.66284 4.8523164 50.420232 4.2254892 49.9375 3.7460938 C 49.454768 3.2666981 48.746503 3 48 3 L 15 3 z M 15 5 L 48 5 C 48.326497 5 48.431326 5.070661 48.527344 5.1660156 C 48.622714 5.2607266 48.72423 5.4467755 48.769531 5.7597656 L 48.771484 5.7636719 L 49.617188 13 L 13.337891 13 L 14.152344 5.7636719 C 14.152344 5.7636719 14.154297 5.7617188 14.154297 5.7617188 C 14.195737 5.4726064 14.29481 5.2949513 14.410156 5.1875 C 14.525976 5.0796076 14.673503 5 15 5 z M 13.113281 15 L 49.851562 15 L 50.332031 19.115234 A 1.0001 1.0001 0 0 0 51.324219 20 L 60.03125 20 C 60.032124 20 60.023091 20.007712 60.025391 20.007812 C 56.803643 21.736459 46.410624 25 31.462891 25 C 16.612255 25 6.2889571 21.784116 2.9941406 20.046875 C 2.9944293 20.034495 2.9968305 20.043679 3.0078125 20.005859 C 3.0097425 19.999209 3.0036877 20.004361 3.0039062 20 L 11.65625 20 A 1.0001 1.0001 0 0 0 12.650391 19.111328 L 13.113281 15 z M 14 17 C 13.448 17 13 17.448 13 18 L 13 20 C 13 20.552 13.448 21 14 21 C 14.552 21 15 20.552 15 20 L 15 18 C 15 17.448 14.552 17 14 17 z M 19 17 C 18.448 17 18 17.448 18 18 L 18 20 C 18 20.552 18.448 21 19 21 C 19.552 21 20 20.552 20 20 L 20 18 C 20 17.448 19.552 17 19 17 z M 24 17 C 23.448 17 23 17.448 23 18 L 23 20 C 23 20.552 23.448 21 24 21 C 24.552 21 25 20.552 25 20 L 25 18 C 25 17.448 24.552 17 24 17 z M 29 17 C 28.448 17 28 17.448 28 18 L 28 20 C 28 20.552 28.448 21 29 21 C 29.552 21 30 20.552 30 20 L 30 18 C 30 17.448 29.552 17 29 17 z M 34 17 C 33.448 17 33 17.448 33 18 L 33 20 C 33 20.552 33.448 21 34 21 C 34.552 21 35 20.552 35 20 L 35 18 C 35 17.448 34.552 17 34 17 z M 39 17 C 38.448 17 38 17.448 38 18 L 38 20 C 38 20.552 38.448 21 39 21 C 39.552 21 40 20.552 40 20 L 40 18 C 40 17.448 39.552 17 39 17 z M 44 17 C 43.448 17 43 17.448 43 18 L 43 20 C 43 20.552 43.448 21 44 21 C 44.552 21 45 20.552 45 20 L 45 18 C 45 17.448 44.552 17 44 17 z M 49 17 C 48.448 17 48 17.448 48 18 L 48 20 C 48 20.552 48.448 21 49 21 C 49.552 21 50 20.552 50 20 L 50 18 C 50 17.448 49.552 17 49 17 z M 11.591797 24.970703 C 16.704573 26.111213 23.406978 27 31.462891 27 C 39.107566 27 45.548262 26.202534 50.554688 25.146484 C 50.91159 27.046367 51.008558 28.990021 50.810547 30.921875 C 50.776547 31.471875 51.192187 31.947375 51.742188 31.984375 L 51.8125 31.984375 C 52.3365 31.986375 52.773453 31.5845 52.814453 31.0625 L 52.814453 30.330078 C 52.873453 30.312078 52.930375 30.287766 52.984375 30.259766 C 53.243375 30.057766 53.569484 29.960281 53.896484 29.988281 C 54.327484 30.108281 54.699391 30.720812 54.900391 31.632812 C 55.121391 33.031813 55.028906 34.463266 54.628906 35.822266 L 54.609375 35.822266 C 53.787375 38.829266 52.122469 40.501953 51.230469 40.501953 C 50.770469 40.483953 50.357516 40.781609 50.228516 41.224609 C 48.58167 46.871111 45.244682 52.542817 40.960938 56.162109 C 40.9858 55.911143 41 55.658056 41 55.400391 L 41 49.429688 C 41 46.443687 38.556313 44 35.570312 44 L 27.427734 44 C 24.442734 44 22 46.443687 22 49.429688 L 22 55.400391 C 22 55.652092 22.013371 55.899209 22.037109 56.144531 C 17.755552 52.523666 14.408618 46.858872 12.716797 41.214844 C 12.587797 40.772844 12.173891 40.474187 11.712891 40.492188 C 10.820891 40.492188 9.1479375 38.8685 8.3359375 35.8125 C 7.4739375 32.6055 8.1941719 30.209516 9.0761719 29.978516 C 9.4041719 29.948516 9.7302812 30.046 9.9882812 30.25 L 9.9882812 30.931641 C 9.9882812 31.484641 10.437234 31.933594 10.990234 31.933594 C 11.543234 31.933594 11.994141 31.484641 11.994141 30.931641 C 12.040141 29.449641 11.985984 27.965234 11.833984 26.490234 C 11.833984 26.260234 11.753359 25.990688 11.693359 25.679688 C 11.65204 25.44442 11.626792 25.206887 11.591797 24.970703 z M 14 29 A 1.0001 1.0001 0 0 0 13.03125 30.25 L 15.050781 38.064453 A 1.0001 1.0001 0 0 0 15.064453 38.113281 C 15.599866 39.817584 17.229829 41 19.115234 41 L 25.173828 41 C 26.9017 41 28.574438 40.073661 29.310547 38.492188 L 29.302734 38.511719 L 30.126953 36.828125 A 1.0001 1.0001 0 0 0 30.128906 36.826172 C 30.36588 36.341847 30.906344 36 31.529297 36 C 32.131717 36 32.663347 36.322533 32.910156 36.785156 L 33.849609 38.542969 A 1.0001 1.0001 0 0 0 33.867188 38.574219 C 34.705252 40.014996 36.234302 41 37.962891 41 L 44.019531 41 C 45.905663 41 47.535044 39.817136 48.070312 38.113281 A 1.0001 1.0001 0 0 0 48.087891 38.048828 L 49.972656 30.234375 A 1.0001 1.0001 0 0 0 49 29 L 14 29 z M 15.291016 31 L 47.730469 31 L 46.160156 37.517578 C 45.886171 38.383482 45.093638 39 44.019531 39 L 37.962891 39 C 36.997479 39 36.103637 38.441582 35.595703 37.568359 L 34.675781 35.84375 C 34.06259 34.694373 32.840877 34 31.529297 34 C 30.17625 34 28.922998 34.739639 28.332031 35.947266 L 27.505859 37.630859 A 1.0001 1.0001 0 0 0 27.498047 37.648438 C 27.156144 38.382962 26.137956 39 25.173828 39 L 19.115234 39 C 18.041285 39 17.245708 38.382499 16.972656 37.515625 C 16.972656 37.515625 16.972656 37.513672 16.972656 37.513672 L 15.291016 31 z M 27 49 L 36 49 C 37.105 49 38 49.895 38 51 L 38 54 L 34 58 L 34 54.5 C 34 53.119 32.881 52 31.5 52 C 30.119 52 29 53.119 29 54.5 L 29 58 L 25 54 L 25 51 C 25 49.895 25.895 49 27 49 z"/></svg>