<svg xmlns="http://www.w3.org/2000/svg"  viewBox="0 0 64 64" width="256px" height="256px"><path fill="#faefde" d="M55.132,28.918c-0.03,0-3.098,1.082-3.098,0.471c-0.108-2.393-0.63-4.75-1.544-6.965L11,22 c0.176,0.921,0.424,3.82,0.334,4.754c-0.15,0.852,0.591,2.756-0.291,2.636c-2.376-0.321-3.108,1.152-3.108,1.152 c-0.401,0.1-1.203,2.245-0.311,5.392c0.892,3.147,2.506,4.48,3.007,4.48c0.758-0.001,1.427,0.496,1.644,1.223 c2.877,9.681,10.426,19.492,19.278,19.492s16.401-9.811,19.258-19.492c0.228-0.71,0.879-1.199,1.624-1.223 c0.551,0,2.155-1.303,3.007-4.48C56.295,32.757,55.543,29.059,55.132,28.918z"/><path fill="#efd8be" d="M7.705,35.923c-0.852-3.197-0.09-5.291,0.311-5.392c0,0,0.19-1.513,2.566-1.193 c0.882,0.12,1.464,8.649,1.283,12.026C11.785,42.147,8.517,39.08,7.705,35.923z M55.303,35.923c0.852-3.197,0.09-5.291-0.311-5.392 c0,0-0.19-1.513-2.566-1.193c-0.882,0.12-1.464,8.649-1.283,12.026C51.182,42.147,54.46,39.08,55.303,35.923z"/><path fill="#8d6c9f" d="M56.826,31.233c-0.351-1.724-1.223-2.856-2.436-3.177c-0.52-0.13-1.067-0.106-1.574,0.07 c0.003-2.069-0.336-4.124-1.002-6.083c-0.136-0.284-0.198-0.598-0.18-0.912l-1.694,1.533c0.861,2.662,1.158,5.475,0.872,8.258 c-0.034,0.55,0.382,1.025,0.932,1.062h0.07c0.524,0.002,0.961-0.4,1.002-0.922c0-0.25,0-0.491,0-0.732 c0.059-0.018,0.116-0.042,0.17-0.07c0.259-0.202,0.585-0.299,0.912-0.271c0.431,0.12,0.802,0.732,1.003,1.644 c0.221,1.399,0.129,2.83-0.271,4.189h-0.02c-0.822,3.007-2.486,4.68-3.378,4.68c-0.46-0.018-0.874,0.279-1.003,0.722 c-2.727,9.35-10.065,18.811-18.716,18.811s-15.99-9.46-18.796-18.821c-0.129-0.442-0.542-0.74-1.003-0.722 c-0.892,0-2.566-1.624-3.378-4.68c-0.862-3.207-0.14-5.602,0.742-5.833c0.328-0.03,0.654,0.067,0.912,0.271 c0,0.261,0,0.501,0,0.681c0,0.553,0.449,1.002,1.002,1.002s1.003-0.449,1.003-1.002c0.046-1.482-0.008-2.965-0.16-4.44 c0-0.23-0.08-0.501-0.14-0.812c-0.271-1.548-0.409-3.114-0.416-4.681H9.293c0.013,1.722,0.176,3.443,0.487,5.142 c0,0.271,0.09,0.501,0.12,0.712c0.03,0.21,0.08,0.762,0.1,1.203c-0.453-0.121-0.93-0.121-1.383,0 c-2.326,0.621-3.258,4.189-2.155,8.288c0.862,3.197,2.657,5.542,4.551,6.013C14.141,52.219,22.04,62,31.514,62 c9.473,0,17.373-9.781,20.501-19.643c1.895-0.511,3.689-2.866,4.551-6.013C57.037,34.682,57.126,32.935,56.826,31.233z"/><path fill="#8a8e97" d="M14,30l2.019,7.814C16.423,39.1,17.635,40,19.115,40h6.058c1.346,0,2.692-0.771,3.231-1.929 c0,0,0.654-1.4,1.596-3.071c0.404-0.771,2.596-0.643,3,0l1.731,3.071C35.404,39.229,36.615,40,37.962,40h6.058 c1.481,0,2.692-0.9,3.096-2.186L49,30H14z"/><path fill="#8d6c9f" d="M44.02,41h-6.058c-1.655,0-3.225-0.929-4.096-2.425l-0.955-1.789C32.656,36.309,32.113,36,31.529,36 c-0.605,0-1.155,0.325-1.401,0.827l-0.825,1.684C28.612,39.993,26.949,41,25.173,41h-6.058c-1.881,0-3.508-1.16-4.05-2.886 l-2.033-7.864c-0.078-0.299-0.013-0.618,0.177-0.862S13.69,29,14,29h35c0.307,0,0.596,0.141,0.785,0.381 c0.19,0.241,0.259,0.555,0.187,0.853l-1.885,7.814C47.527,39.84,45.9,41,44.02,41z M31.529,34c1.333,0,2.538,0.707,3.146,1.844 l0.938,1.757C36.109,38.451,37.016,39,37.962,39h6.058c1.018,0,1.858-0.583,2.142-1.485L47.73,31H15.291l1.696,6.564 c0.27,0.853,1.11,1.436,2.128,1.436h6.058c0.982,0,1.96-0.568,2.325-1.351l0.833-1.702C28.91,34.765,30.166,34,31.529,34z"/><path fill="#8d6c9f" d="M35.571,44h-8.143C24.443,44,22,46.443,22,49.429V55.4c0,4.207,3.393,7.6,7.6,7.6h3.8 c4.207,0,7.6-3.393,7.6-7.6v-5.971C41,46.443,38.557,44,35.571,44z M38,54l-4,4v-3.5c0-1.381-1.119-2.5-2.5-2.5h0 c-1.381,0-2.5,1.119-2.5,2.5V58l-4-4v-3c0-1.105,0.895-2,2-2h9c1.105,0,2,0.895,2,2V54z"/><path fill="#8a8e97" d="M60.999,19H52L50.383,5.623C50.245,4.676,49.829,4,48.72,4c-2.911,0-30.757,0-34.5,0 c-1.109,0-1.525,0.676-1.664,1.624L11,19H2c-0.97,0-1.308,1.318-0.615,1.859C4.99,22.753,15.803,26,31.47,26 s26.48-3.247,30.084-5.141C62.386,20.318,61.97,19,60.999,19z"/><path fill="#a0a4ac" d="M11.473,14L11,19h22h19l-0.473-5H11.473z"/><path fill="#8d6c9f" d="M31.462,27c-15.737,0-26.233-3.442-29.585-5.262c-0.053-0.029-0.104-0.062-0.15-0.101 c-0.659-0.532-0.9-1.46-0.601-2.309C1.411,18.521,2.127,18,2.949,18h7.814l1.404-12.488C12.385,3.975,13.495,3,15,3h33 c1.48,0,2.534,0.952,2.751,2.484L52.215,18h7.817c0.861,0,1.615,0.573,1.875,1.425c0.264,0.863-0.051,1.772-0.78,2.264 C57.694,23.558,47.198,27,31.462,27z M2.997,20.068C6.366,21.825,16.382,25,31.462,25c15.223,0,25.284-3.236,28.558-4.981 L60.032,20h-8.707c-0.508,0-0.935-0.38-0.993-0.884L48.768,5.74C48.671,5.059,48.335,5,48,5H15c-0.317,0-0.751,0.079-0.848,0.763 l-1.501,13.349C12.594,19.618,12.166,20,11.657,20H2.962C2.988,20.004,2.993,20.038,2.997,20.068z"/><path fill="#8d6c9f" d="M50,15H13c-0.553,0-1-0.448-1-1s0.447-1,1-1h37c0.553,0,1,0.448,1,1S50.553,15,50,15z"/><path fill="#8d6c9f" d="M14,17c-0.552,0-1,0.448-1,1v2c0,0.552,0.448,1,1,1s1-0.448,1-1v-2C15,17.448,14.552,17,14,17z M19,17c-0.552,0-1,0.448-1,1v2c0,0.552,0.448,1,1,1s1-0.448,1-1v-2C20,17.448,19.552,17,19,17z M24,17c-0.552,0-1,0.448-1,1v2 c0,0.552,0.448,1,1,1s1-0.448,1-1v-2C25,17.448,24.552,17,24,17z M29,17c-0.552,0-1,0.448-1,1v2c0,0.552,0.448,1,1,1s1-0.448,1-1 v-2C30,17.448,29.552,17,29,17z M34,17c-0.552,0-1,0.448-1,1v2c0,0.552,0.448,1,1,1s1-0.448,1-1v-2C35,17.448,34.552,17,34,17z M39,17c-0.552,0-1,0.448-1,1v2c0,0.552,0.448,1,1,1s1-0.448,1-1v-2C40,17.448,39.552,17,39,17z M44,17c-0.552,0-1,0.448-1,1v2 c0,0.552,0.448,1,1,1s1-0.448,1-1v-2C45,17.448,44.552,17,44,17z M49,17c-0.552,0-1,0.448-1,1v2c0,0.552,0.448,1,1,1s1-0.448,1-1 v-2C50,17.448,49.552,17,49,17z"/></svg>